<svg width="85" height="85" viewBox="0 0 85 85" fill="none" xmlns="http://www.w3.org/2000/svg">
<g clip-path="url(#clip0_8_100)">
<path d="M49.4412 84.0208C50.4141 80.491 51.3871 76.9613 52.3601 73.4315C54.457 65.7739 56.5727 58.1213 58.6203 50.4509C58.9748 49.1232 59.529 48.7866 60.8448 49.3077C65.8003 51.2703 70.8136 53.0978 75.7342 55.1387C77.4453 55.8484 79.0237 56.9313 80.5333 58.0159C82.3183 59.2986 83.0833 61.1431 83.2737 63.3182C83.7684 68.9282 84.3651 74.5297 84.9542 80.1312C85.2942 83.3858 83.8118 85.0408 80.3914 85.0425C63.108 85.0516 45.8247 85.0516 28.5414 85.0425C20.608 85.0425 12.6747 85.0425 4.74135 85.0425C1.31925 85.0425 -0.268545 83.5321 0.0298051 80.2247C0.577205 74.1574 1.17221 68.0901 1.97036 62.0509C2.13526 60.8065 3.0201 59.3836 4.02395 58.5718C5.85995 57.0962 7.91101 55.76 10.0785 54.8165C14.53 52.8845 19.1183 51.2465 23.653 49.5006C25.5859 48.7552 25.9404 48.943 26.4895 50.9524C29.4333 61.7236 32.3771 72.4945 35.321 83.2652C35.3966 83.606 35.5932 83.908 35.8743 84.1152C36.2186 81.4861 36.5705 78.8579 36.9062 76.228C37.6134 70.6919 38.3402 65.1585 38.9887 59.6156C39.0984 58.6806 38.9428 57.6887 38.7567 56.752C38.511 55.511 38.1141 54.298 37.7503 52.9533H47.283C47.2159 53.3248 47.2201 53.6843 47.0858 53.9852C45.4419 57.6785 46.3438 61.4397 46.7773 65.178C47.4666 71.128 48.2087 77.078 48.9371 83.0204C48.9779 83.3535 49.0978 83.6765 49.1811 84.0046L49.4412 84.0208Z" fill="white"/>
<path d="M51.1139 40.545C44.2969 46.9396 42.5128 47.3833 35.3473 41.4673C26.2905 33.9873 19.9708 19.6223 26.0517 9.73084C29.9566 3.37964 35.7196 -0.327212 43.4716 0.0714379C51.5466 0.486238 56.9084 5.03204 60.288 11.9714C63.7279 19.3316 58.9977 33.1687 51.1139 40.545Z" fill="white"/>
</g>
<defs>
<clipPath id="clip0_8_100">
<rect width="85" height="85" fill="white"/>
</clipPath>
</defs>
</svg>
