<svg width="107" height="107" viewBox="0 0 107 107" fill="none" xmlns="http://www.w3.org/2000/svg">
<g clip-path="url(#clip0_8_92)">
<path d="M74.1348 20.9353C74.7076 21.9779 74.7516 23.1059 74.7495 24.2642C74.7325 32.6335 74.7277 41.0026 74.7351 49.3716C74.7298 53.9186 72.2267 57.5758 68.0827 58.9472C66.9923 59.2962 65.8546 59.4747 64.7098 59.4765C57.0479 59.5221 49.3866 59.5283 41.7258 59.4951C35.9707 59.4802 31.7301 55.2715 31.7095 49.518C31.678 40.8061 31.6833 32.0949 31.7254 23.3844C31.7291 22.5671 32.1056 21.7494 32.3045 20.9353L33.2363 20.0035C34.281 19.4318 35.4069 19.391 36.5641 19.3931C47.6671 19.4087 58.7699 19.4099 69.8725 19.3968C71.0297 19.3958 72.1593 19.4329 73.202 20.0046L74.1348 20.9353ZM64.7071 36.9041C65.8357 35.8816 66.5267 34.2042 66.5468 32.3639C66.5645 30.7786 66.5658 29.1931 66.5506 27.6074C66.5357 26.01 65.6447 25.1191 64.0421 25.1191C56.8232 25.1106 49.6032 25.1108 42.3818 25.1196C40.7871 25.1233 39.9015 26.0175 39.8882 27.6228C39.8751 29.1837 39.876 30.7448 39.8909 32.3061C39.9344 36.046 42.4646 38.5985 46.2018 38.617C50.8846 38.6435 55.5685 38.6245 60.2518 38.6229C61.9574 38.6229 63.4582 38.0936 64.7071 36.9041Z" fill="white"/>
<path d="M49.3392 102.207C48.7002 101.077 47.9953 99.9794 47.4252 98.8175C46.1821 96.2835 45.6142 93.5995 45.6253 90.7596C45.6508 82.9426 45.5495 68.2593 45.4816 63.3007C45.4787 63.0807 45.5195 62.8623 45.6017 62.6581C45.6839 62.454 45.8059 62.2682 45.9604 62.1116C46.115 61.9549 46.2991 61.8305 46.5022 61.7456C46.7052 61.6607 46.923 61.617 47.1431 61.6169L59.1386 61.6164C59.5782 61.6162 60 61.7902 60.3115 62.1003C60.623 62.4105 60.7989 62.8315 60.8007 63.271C60.8129 65.8288 60.7959 70.7312 60.8108 73.3839C60.8161 74.2695 60.5541 74.9844 59.9119 75.6065C59.1911 76.305 58.481 77.0129 57.7529 77.7443C57.2539 78.246 56.9728 78.9241 56.9704 79.6318C56.968 80.3394 57.2446 81.0194 57.7402 81.5245L57.7582 81.5425C58.5786 82.3788 59.3688 83.2454 60.2157 84.0531C60.6957 84.5108 60.7132 84.8443 60.237 85.3184C59.0119 86.5435 57.8218 87.8025 56.6212 89.052L56.6148 89.0583C56.4368 89.2437 56.3337 89.4884 56.3254 89.7452C56.317 90.0021 56.4041 90.2529 56.5697 90.4494C57.1085 91.089 57.6362 91.7163 58.175 92.3443C58.7138 92.9722 59.259 93.6001 59.8191 94.2121C60.2555 94.6888 60.3658 95.1958 60.1723 95.8243C59.4924 98.0283 58.6078 100.125 57.1653 101.953C57.1162 102.035 57.078 102.124 57.0518 102.216L55.8092 103.458C55.6252 103.569 55.4396 103.677 55.2566 103.791C54.0045 104.564 52.7323 104.652 51.4303 103.918C51.206 103.791 50.9694 103.684 50.7435 103.564L49.3392 102.207Z" fill="white"/>
<path d="M50.7372 103.558C50.9647 103.679 51.2033 103.79 51.4303 103.918C52.7328 104.652 54.0051 104.565 55.2561 103.79C55.4391 103.677 55.6242 103.568 55.8087 103.457L53.2223 106.043C52.3939 105.215 51.5656 104.386 50.7372 103.558Z" fill="white"/>
</g>
<defs>
<clipPath id="clip0_8_92">
<rect width="75" height="75" fill="white" transform="translate(0 53.033) rotate(-45)"/>
</clipPath>
</defs>
</svg>
