<svg width="125" height="125" viewBox="0 0 125 125" fill="none" xmlns="http://www.w3.org/2000/svg">
<path d="M58.825 28.375H53.9388C53.6892 28.3749 53.4437 28.438 53.2251 28.5584C53.0065 28.6789 52.822 28.8527 52.6888 29.0637L3.52875 106.911C2 109.337 3.74 112.5 6.60875 112.5H38.92C39.7557 112.5 40.5661 112.213 41.2152 111.687C41.8643 111.16 42.3126 110.427 42.485 109.609L59.46 29.1575C59.4799 29.063 59.4785 28.9653 59.4558 28.8714C59.4331 28.7776 59.3898 28.6899 59.3289 28.615C59.2681 28.54 59.1913 28.4795 59.1041 28.438C59.0169 28.3965 58.9216 28.375 58.825 28.375Z" fill="white"/>
<path d="M70.4425 28.375H66.27C66.1597 28.3744 66.0505 28.3979 65.9502 28.4439C65.8499 28.49 65.7609 28.5574 65.6894 28.6415C65.6179 28.7256 65.5657 28.8243 65.5365 28.9307C65.5072 29.0372 65.5016 29.1487 65.52 29.2575L79.1513 109.733C79.2825 110.507 79.6842 111.211 80.285 111.717C80.8857 112.224 81.6466 112.501 82.4325 112.5H118.933C119.529 112.5 120.114 112.339 120.626 112.035C121.139 111.731 121.561 111.295 121.847 110.772C122.133 110.249 122.273 109.659 122.252 109.063C122.232 108.468 122.051 107.888 121.73 107.386L71.4938 28.95C71.3807 28.7738 71.2252 28.6288 71.0415 28.5283C70.8578 28.4279 70.6519 28.3752 70.4425 28.375Z" fill="white"/>
<path d="M62.6925 28.375H61.9625L58.375 109.645C58.3586 110.014 58.4172 110.382 58.5471 110.728C58.6771 111.074 58.8757 111.39 59.1311 111.656C59.3865 111.923 59.6933 112.136 60.0329 112.281C60.3726 112.426 60.7382 112.5 61.1075 112.5H63.0363C63.4041 112.5 63.7681 112.426 64.1066 112.282C64.445 112.138 64.751 111.927 65.0061 111.663C65.2612 111.398 65.4603 111.084 65.5913 110.74C65.7224 110.397 65.7827 110.03 65.7688 109.662L62.6925 28.375Z" fill="white"/>
</svg>
