<svg width="143" height="30" viewBox="0 0 143 30" fill="none" xmlns="http://www.w3.org/2000/svg">
<path d="M19.0866 7.04906C19.439 6.25857 20.561 6.25857 20.9134 7.04906L22.5278 10.6708C22.6731 10.9968 22.9812 11.2207 23.3362 11.2582L27.2796 11.6744C28.1402 11.7652 28.487 12.8323 27.844 13.4117L24.8984 16.0663C24.6333 16.3052 24.5156 16.6674 24.5896 17.0166L25.4124 20.8956C25.5919 21.7422 24.6842 22.4017 23.9345 21.9693L20.4996 19.9882C20.1904 19.8098 19.8096 19.8098 19.5004 19.9882L16.0655 21.9693C15.3158 22.4017 14.4081 21.7422 14.5876 20.8956L15.4104 17.0166C15.4844 16.6674 15.3667 16.3052 15.1016 16.0663L12.156 13.4117C11.513 12.8323 11.8598 11.7652 12.7205 11.6744L16.6638 11.2582C17.0188 11.2207 17.3269 10.9968 17.4722 10.6708L19.0866 7.04906Z" fill="#F55757"/>
<path d="M45.0866 7.04906C45.439 6.25857 46.561 6.25857 46.9134 7.04906L48.5278 10.6708C48.6731 10.9968 48.9812 11.2207 49.3362 11.2582L53.2796 11.6744C54.1402 11.7652 54.487 12.8323 53.844 13.4117L50.8984 16.0663C50.6333 16.3052 50.5156 16.6674 50.5896 17.0166L51.4124 20.8956C51.5919 21.7422 50.6842 22.4017 49.9345 21.9693L46.4996 19.9882C46.1904 19.8098 45.8096 19.8098 45.5004 19.9882L42.0655 21.9693C41.3158 22.4017 40.4081 21.7422 40.5876 20.8956L41.4104 17.0166C41.4844 16.6674 41.3667 16.3052 41.1016 16.0663L38.156 13.4117C37.513 12.8323 37.8598 11.7652 38.7205 11.6744L42.6638 11.2582C43.0188 11.2207 43.3269 10.9968 43.4722 10.6708L45.0866 7.04906Z" fill="#F55757"/>
<path d="M70.5792 7.17455C70.9236 6.36113 72.0764 6.36114 72.4208 7.17455L73.8961 10.6583C74.0371 10.9914 74.347 11.2223 74.7065 11.2623L78.3953 11.6721C79.2409 11.7661 79.5904 12.8059 78.9731 13.3915L76.1478 16.0717C75.8981 16.3086 75.7877 16.6572 75.8557 16.9947L76.6334 20.8541C76.8055 21.7082 75.8789 22.3586 75.1341 21.9064L72.019 20.0151C71.7001 19.8215 71.2999 19.8215 70.981 20.0151L67.8659 21.9064C67.1211 22.3586 66.1945 21.7082 66.3666 20.8541L67.1443 16.9947C67.2123 16.6572 67.1019 16.3086 66.8522 16.0717L64.0269 13.3915C63.4096 12.8059 63.7591 11.7661 64.6047 11.6721L68.2935 11.2623C68.653 11.2223 68.9629 10.9914 69.1039 10.6583L70.5792 7.17455Z" fill="#F55757"/>
<path d="M96.0866 7.04906C96.439 6.25857 97.561 6.25857 97.9134 7.04906L99.5278 10.6708C99.6731 10.9968 99.9812 11.2207 100.336 11.2582L104.28 11.6744C105.14 11.7652 105.487 12.8323 104.844 13.4117L101.898 16.0663C101.633 16.3052 101.516 16.6674 101.59 17.0166L102.412 20.8956C102.592 21.7422 101.684 22.4017 100.935 21.9693L97.4996 19.9882C97.1904 19.8098 96.8096 19.8098 96.5004 19.9882L93.0655 21.9693C92.3158 22.4017 91.4081 21.7422 91.5876 20.8956L92.4104 17.0166C92.4844 16.6674 92.3667 16.3052 92.1016 16.0663L89.156 13.4117C88.513 12.8323 88.8598 11.7652 89.7205 11.6744L93.6638 11.2582C94.0188 11.2207 94.3269 10.9968 94.4722 10.6708L96.0866 7.04906Z" fill="#F55757"/>
<path d="M122.087 7.04906C122.439 6.25857 123.561 6.25857 123.913 7.04906L125.528 10.6708C125.673 10.9968 125.981 11.2207 126.336 11.2582L130.28 11.6744C131.14 11.7652 131.487 12.8323 130.844 13.4117L127.898 16.0663C127.633 16.3052 127.516 16.6674 127.59 17.0166L128.412 20.8956C128.592 21.7422 127.684 22.4017 126.935 21.9693L123.5 19.9882C123.19 19.8098 122.81 19.8098 122.5 19.9882L119.065 21.9693C118.316 22.4017 117.408 21.7422 117.588 20.8956L118.41 17.0166C118.484 16.6674 118.367 16.3052 118.102 16.0663L115.156 13.4117C114.513 12.8323 114.86 11.7652 115.72 11.6744L119.664 11.2582C120.019 11.2207 120.327 10.9968 120.472 10.6708L122.087 7.04906Z" fill="#A6A6A6"/>
</svg>
